<?xml version="1.0" encoding="UTF-8" standalone="no"?>
<!DOCTYPE svg PUBLIC "-//W3C//DTD SVG 1.1//EN"
 "http://www.w3.org/Graphics/SVG/1.1/DTD/svg11.dtd">
<!-- Generated by graphviz version 2.38.0 (20140413.2041)
 -->
<!-- Title: Tree Pages: 1 -->
<svg width="1177pt" height="671pt"
 viewBox="0.00 0.00 1177.00 671.00" xmlns="http://www.w3.org/2000/svg" xmlns:xlink="http://www.w3.org/1999/xlink">
<g id="graph0" class="graph" transform="scale(1 1) rotate(0) translate(4 667)">
<title>Tree</title>
<polygon fill="white" stroke="none" points="-4,4 -4,-667 1173,-667 1173,4 -4,4"/>
<!-- 0 -->
<g id="node1" class="node"><title>0</title>
<polygon fill="#d9ecfa" stroke="black" points="586,-663 480,-663 480,-580 586,-580 586,-663"/>
<text text-anchor="start" x="504" y="-647.8" font-family="Times New Roman,serif" font-size="14.00">age ≤ 44.5</text>
<text text-anchor="start" x="488" y="-632.8" font-family="Times New Roman,serif" font-size="14.00">entropy = 0.992</text>
<text text-anchor="start" x="492" y="-617.8" font-family="Times New Roman,serif" font-size="14.00">samples = 143</text>
<text text-anchor="start" x="489" y="-602.8" font-family="Times New Roman,serif" font-size="14.00">value = [64, 79]</text>
<text text-anchor="start" x="500.5" y="-587.8" font-family="Times New Roman,serif" font-size="14.00">class = true</text>
</g>
<!-- 1 -->
<g id="node2" class="node"><title>1</title>
<polygon fill="#f6d5bd" stroke="black" points="465,-544 359,-544 359,-461 465,-461 465,-544"/>
<text text-anchor="start" x="371" y="-528.8" font-family="Times New Roman,serif" font-size="14.00">vaccine ≤ 0.04</text>
<text text-anchor="start" x="367" y="-513.8" font-family="Times New Roman,serif" font-size="14.00">entropy = 0.971</text>
<text text-anchor="start" x="374.5" y="-498.8" font-family="Times New Roman,serif" font-size="14.00">samples = 50</text>
<text text-anchor="start" x="368" y="-483.8" font-family="Times New Roman,serif" font-size="14.00">value = [30, 20]</text>
<text text-anchor="start" x="377" y="-468.8" font-family="Times New Roman,serif" font-size="14.00">class = false</text>
</g>
<!-- 0&#45;&gt;1 -->
<g id="edge1" class="edge"><title>0&#45;&gt;1</title>
<path fill="none" stroke="black" d="M491.02,-579.907C481.447,-570.651 471.189,-560.732 461.34,-551.209"/>
<polygon fill="black" stroke="black" points="463.528,-548.456 453.906,-544.021 458.662,-553.488 463.528,-548.456"/>
<text text-anchor="middle" x="454.326" y="-565.317" font-family="Times New Roman,serif" font-size="14.00">True</text>
</g>
<!-- 12 -->
<g id="node13" class="node"><title>12</title>
<polygon fill="#abd5f4" stroke="black" points="649,-544 543,-544 543,-461 649,-461 649,-544"/>
<text text-anchor="start" x="558" y="-528.8" font-family="Times New Roman,serif" font-size="14.00">CVD ≤ 0.395</text>
<text text-anchor="start" x="551" y="-513.8" font-family="Times New Roman,serif" font-size="14.00">entropy = 0.947</text>
<text text-anchor="start" x="558.5" y="-498.8" font-family="Times New Roman,serif" font-size="14.00">samples = 93</text>
<text text-anchor="start" x="552" y="-483.8" font-family="Times New Roman,serif" font-size="14.00">value = [34, 59]</text>
<text text-anchor="start" x="563.5" y="-468.8" font-family="Times New Roman,serif" font-size="14.00">class = true</text>
</g>
<!-- 0&#45;&gt;12 -->
<g id="edge12" class="edge"><title>0&#45;&gt;12</title>
<path fill="none" stroke="black" d="M554.858,-579.907C559.549,-571.195 564.556,-561.897 569.404,-552.893"/>
<polygon fill="black" stroke="black" points="572.522,-554.485 574.181,-544.021 566.358,-551.166 572.522,-554.485"/>
<text text-anchor="middle" x="581.365" y="-564.266" font-family="Times New Roman,serif" font-size="14.00">False</text>
</g>
<!-- 2 -->
<g id="node3" class="node"><title>2</title>
<polygon fill="#399de5" stroke="black" points="341,-417.5 249,-417.5 249,-349.5 341,-349.5 341,-417.5"/>
<text text-anchor="start" x="257" y="-402.3" font-family="Times New Roman,serif" font-size="14.00">entropy = 0.0</text>
<text text-anchor="start" x="261" y="-387.3" font-family="Times New Roman,serif" font-size="14.00">samples = 5</text>
<text text-anchor="start" x="257.5" y="-372.3" font-family="Times New Roman,serif" font-size="14.00">value = [0, 5]</text>
<text text-anchor="start" x="262.5" y="-357.3" font-family="Times New Roman,serif" font-size="14.00">class = true</text>
</g>
<!-- 1&#45;&gt;2 -->
<g id="edge2" class="edge"><title>1&#45;&gt;2</title>
<path fill="none" stroke="black" d="M371.407,-460.907C359.711,-449.211 346.957,-436.457 335.28,-424.78"/>
<polygon fill="black" stroke="black" points="337.713,-422.263 328.167,-417.667 332.763,-427.213 337.713,-422.263"/>
</g>
<!-- 3 -->
<g id="node4" class="node"><title>3</title>
<polygon fill="#f2c09c" stroke="black" points="465,-425 359,-425 359,-342 465,-342 465,-425"/>
<text text-anchor="start" x="368" y="-409.8" font-family="Times New Roman,serif" font-size="14.00">vaccine ≤ 0.485</text>
<text text-anchor="start" x="367" y="-394.8" font-family="Times New Roman,serif" font-size="14.00">entropy = 0.918</text>
<text text-anchor="start" x="374.5" y="-379.8" font-family="Times New Roman,serif" font-size="14.00">samples = 45</text>
<text text-anchor="start" x="368" y="-364.8" font-family="Times New Roman,serif" font-size="14.00">value = [30, 15]</text>
<text text-anchor="start" x="377" y="-349.8" font-family="Times New Roman,serif" font-size="14.00">class = false</text>
</g>
<!-- 1&#45;&gt;3 -->
<g id="edge3" class="edge"><title>1&#45;&gt;3</title>
<path fill="none" stroke="black" d="M412,-460.907C412,-452.649 412,-443.864 412,-435.302"/>
<polygon fill="black" stroke="black" points="415.5,-435.021 412,-425.021 408.5,-435.021 415.5,-435.021"/>
</g>
<!-- 4 -->
<g id="node5" class="node"><title>4</title>
<polygon fill="#efb388" stroke="black" points="348,-306 242,-306 242,-223 348,-223 348,-306"/>
<text text-anchor="start" x="256" y="-290.8" font-family="Times New Roman,serif" font-size="14.00">polyps ≤ 0.05</text>
<text text-anchor="start" x="250" y="-275.8" font-family="Times New Roman,serif" font-size="14.00">entropy = 0.863</text>
<text text-anchor="start" x="257.5" y="-260.8" font-family="Times New Roman,serif" font-size="14.00">samples = 42</text>
<text text-anchor="start" x="251" y="-245.8" font-family="Times New Roman,serif" font-size="14.00">value = [30, 12]</text>
<text text-anchor="start" x="260" y="-230.8" font-family="Times New Roman,serif" font-size="14.00">class = false</text>
</g>
<!-- 3&#45;&gt;4 -->
<g id="edge4" class="edge"><title>3&#45;&gt;4</title>
<path fill="none" stroke="black" d="M371.407,-341.907C362.151,-332.651 352.232,-322.732 342.709,-313.209"/>
<polygon fill="black" stroke="black" points="345.067,-310.617 335.521,-306.021 340.117,-315.567 345.067,-310.617"/>
</g>
<!-- 11 -->
<g id="node12" class="node"><title>11</title>
<polygon fill="#399de5" stroke="black" points="458,-298.5 366,-298.5 366,-230.5 458,-230.5 458,-298.5"/>
<text text-anchor="start" x="374" y="-283.3" font-family="Times New Roman,serif" font-size="14.00">entropy = 0.0</text>
<text text-anchor="start" x="378" y="-268.3" font-family="Times New Roman,serif" font-size="14.00">samples = 3</text>
<text text-anchor="start" x="374.5" y="-253.3" font-family="Times New Roman,serif" font-size="14.00">value = [0, 3]</text>
<text text-anchor="start" x="379.5" y="-238.3" font-family="Times New Roman,serif" font-size="14.00">class = true</text>
</g>
<!-- 3&#45;&gt;11 -->
<g id="edge11" class="edge"><title>3&#45;&gt;11</title>
<path fill="none" stroke="black" d="M412,-341.907C412,-331.204 412,-319.615 412,-308.776"/>
<polygon fill="black" stroke="black" points="415.5,-308.667 412,-298.667 408.5,-308.667 415.5,-308.667"/>
</g>
<!-- 5 -->
<g id="node6" class="node"><title>5</title>
<polygon fill="#d7ebfa" stroke="black" points="224.5,-187 93.5,-187 93.5,-104 224.5,-104 224.5,-187"/>
<text text-anchor="start" x="101.5" y="-171.8" font-family="Times New Roman,serif" font-size="14.00">Prev&#45;biologic ≤ 0.35</text>
<text text-anchor="start" x="114" y="-156.8" font-family="Times New Roman,serif" font-size="14.00">entropy = 0.991</text>
<text text-anchor="start" x="125" y="-141.8" font-family="Times New Roman,serif" font-size="14.00">samples = 9</text>
<text text-anchor="start" x="121.5" y="-126.8" font-family="Times New Roman,serif" font-size="14.00">value = [4, 5]</text>
<text text-anchor="start" x="126.5" y="-111.8" font-family="Times New Roman,serif" font-size="14.00">class = true</text>
</g>
<!-- 4&#45;&gt;5 -->
<g id="edge5" class="edge"><title>4&#45;&gt;5</title>
<path fill="none" stroke="black" d="M247.815,-222.907C236.845,-213.469 225.074,-203.343 213.806,-193.649"/>
<polygon fill="black" stroke="black" points="215.964,-190.889 206.101,-187.021 211.399,-196.196 215.964,-190.889"/>
</g>
<!-- 8 -->
<g id="node9" class="node"><title>8</title>
<polygon fill="#eca36e" stroke="black" points="349,-187 243,-187 243,-104 349,-104 349,-187"/>
<text text-anchor="start" x="258" y="-171.8" font-family="Times New Roman,serif" font-size="14.00">CVD ≤ 0.376</text>
<text text-anchor="start" x="251" y="-156.8" font-family="Times New Roman,serif" font-size="14.00">entropy = 0.746</text>
<text text-anchor="start" x="258.5" y="-141.8" font-family="Times New Roman,serif" font-size="14.00">samples = 33</text>
<text text-anchor="start" x="255" y="-126.8" font-family="Times New Roman,serif" font-size="14.00">value = [26, 7]</text>
<text text-anchor="start" x="261" y="-111.8" font-family="Times New Roman,serif" font-size="14.00">class = false</text>
</g>
<!-- 4&#45;&gt;8 -->
<g id="edge8" class="edge"><title>4&#45;&gt;8</title>
<path fill="none" stroke="black" d="M295.347,-222.907C295.418,-214.649 295.493,-205.864 295.566,-197.302"/>
<polygon fill="black" stroke="black" points="299.068,-197.05 295.654,-187.021 292.068,-196.99 299.068,-197.05"/>
</g>
<!-- 6 -->
<g id="node7" class="node"><title>6</title>
<polygon fill="#399de5" stroke="black" points="92,-68 0,-68 0,-0 92,-0 92,-68"/>
<text text-anchor="start" x="8" y="-52.8" font-family="Times New Roman,serif" font-size="14.00">entropy = 0.0</text>
<text text-anchor="start" x="12" y="-37.8" font-family="Times New Roman,serif" font-size="14.00">samples = 3</text>
<text text-anchor="start" x="8.5" y="-22.8" font-family="Times New Roman,serif" font-size="14.00">value = [0, 3]</text>
<text text-anchor="start" x="13.5" y="-7.8" font-family="Times New Roman,serif" font-size="14.00">class = true</text>
</g>
<!-- 5&#45;&gt;6 -->
<g id="edge6" class="edge"><title>5&#45;&gt;6</title>
<path fill="none" stroke="black" d="M116.923,-103.726C107.322,-94.423 97.1263,-84.5428 87.548,-75.2612"/>
<polygon fill="black" stroke="black" points="89.9811,-72.7451 80.364,-68.2996 85.1098,-77.7721 89.9811,-72.7451"/>
</g>
<!-- 7 -->
<g id="node8" class="node"><title>7</title>
<polygon fill="#f2c09c" stroke="black" points="216,-68 110,-68 110,-0 216,-0 216,-68"/>
<text text-anchor="start" x="118" y="-52.8" font-family="Times New Roman,serif" font-size="14.00">entropy = 0.918</text>
<text text-anchor="start" x="129" y="-37.8" font-family="Times New Roman,serif" font-size="14.00">samples = 6</text>
<text text-anchor="start" x="125.5" y="-22.8" font-family="Times New Roman,serif" font-size="14.00">value = [4, 2]</text>
<text text-anchor="start" x="128" y="-7.8" font-family="Times New Roman,serif" font-size="14.00">class = false</text>
</g>
<!-- 5&#45;&gt;7 -->
<g id="edge7" class="edge"><title>5&#45;&gt;7</title>
<path fill="none" stroke="black" d="M160.489,-103.726C160.789,-95.5175 161.106,-86.8595 161.409,-78.56"/>
<polygon fill="black" stroke="black" points="164.916,-78.4207 161.784,-68.2996 157.921,-78.1651 164.916,-78.4207"/>
</g>
<!-- 9 -->
<g id="node10" class="node"><title>9</title>
<polygon fill="#e68844" stroke="black" points="346,-68 240,-68 240,-0 346,-0 346,-68"/>
<text text-anchor="start" x="248" y="-52.8" font-family="Times New Roman,serif" font-size="14.00">entropy = 0.297</text>
<text text-anchor="start" x="255.5" y="-37.8" font-family="Times New Roman,serif" font-size="14.00">samples = 19</text>
<text text-anchor="start" x="252" y="-22.8" font-family="Times New Roman,serif" font-size="14.00">value = [18, 1]</text>
<text text-anchor="start" x="258" y="-7.8" font-family="Times New Roman,serif" font-size="14.00">class = false</text>
</g>
<!-- 8&#45;&gt;9 -->
<g id="edge9" class="edge"><title>8&#45;&gt;9</title>
<path fill="none" stroke="black" d="M294.883,-103.726C294.658,-95.5175 294.421,-86.8595 294.193,-78.56"/>
<polygon fill="black" stroke="black" points="297.685,-78.2 293.912,-68.2996 290.688,-78.3917 297.685,-78.2"/>
</g>
<!-- 10 -->
<g id="node11" class="node"><title>10</title>
<polygon fill="#f8e0ce" stroke="black" points="470,-68 364,-68 364,-0 470,-0 470,-68"/>
<text text-anchor="start" x="372" y="-52.8" font-family="Times New Roman,serif" font-size="14.00">entropy = 0.985</text>
<text text-anchor="start" x="379.5" y="-37.8" font-family="Times New Roman,serif" font-size="14.00">samples = 14</text>
<text text-anchor="start" x="379.5" y="-22.8" font-family="Times New Roman,serif" font-size="14.00">value = [8, 6]</text>
<text text-anchor="start" x="382" y="-7.8" font-family="Times New Roman,serif" font-size="14.00">class = false</text>
</g>
<!-- 8&#45;&gt;10 -->
<g id="edge10" class="edge"><title>8&#45;&gt;10</title>
<path fill="none" stroke="black" d="M341.056,-103.726C351.336,-94.423 362.254,-84.5428 372.511,-75.2612"/>
<polygon fill="black" stroke="black" points="375.137,-77.6047 380.203,-68.2996 370.44,-72.4144 375.137,-77.6047"/>
</g>
<!-- 13 -->
<g id="node14" class="node"><title>13</title>
<polygon fill="#81c1ee" stroke="black" points="649,-425 543,-425 543,-342 649,-342 649,-425"/>
<text text-anchor="start" x="552" y="-409.8" font-family="Times New Roman,serif" font-size="14.00">arthritis ≤ 0.195</text>
<text text-anchor="start" x="551" y="-394.8" font-family="Times New Roman,serif" font-size="14.00">entropy = 0.837</text>
<text text-anchor="start" x="558.5" y="-379.8" font-family="Times New Roman,serif" font-size="14.00">samples = 60</text>
<text text-anchor="start" x="552" y="-364.8" font-family="Times New Roman,serif" font-size="14.00">value = [16, 44]</text>
<text text-anchor="start" x="563.5" y="-349.8" font-family="Times New Roman,serif" font-size="14.00">class = true</text>
</g>
<!-- 12&#45;&gt;13 -->
<g id="edge13" class="edge"><title>12&#45;&gt;13</title>
<path fill="none" stroke="black" d="M596,-460.907C596,-452.649 596,-443.864 596,-435.302"/>
<polygon fill="black" stroke="black" points="599.5,-435.021 596,-425.021 592.5,-435.021 599.5,-435.021"/>
</g>
<!-- 22 -->
<g id="node23" class="node"><title>22</title>
<polygon fill="#fbeade" stroke="black" points="935,-425 829,-425 829,-342 935,-342 935,-425"/>
<text text-anchor="start" x="841" y="-409.8" font-family="Times New Roman,serif" font-size="14.00">weight ≤ 275.0</text>
<text text-anchor="start" x="837" y="-394.8" font-family="Times New Roman,serif" font-size="14.00">entropy = 0.994</text>
<text text-anchor="start" x="844.5" y="-379.8" font-family="Times New Roman,serif" font-size="14.00">samples = 33</text>
<text text-anchor="start" x="838" y="-364.8" font-family="Times New Roman,serif" font-size="14.00">value = [18, 15]</text>
<text text-anchor="start" x="847" y="-349.8" font-family="Times New Roman,serif" font-size="14.00">class = false</text>
</g>
<!-- 12&#45;&gt;22 -->
<g id="edge22" class="edge"><title>12&#45;&gt;22</title>
<path fill="none" stroke="black" d="M649.124,-479.767C697.332,-460.046 768.458,-430.949 819.407,-410.106"/>
<polygon fill="black" stroke="black" points="820.746,-413.34 828.676,-406.314 818.095,-406.861 820.746,-413.34"/>
</g>
<!-- 14 -->
<g id="node15" class="node"><title>14</title>
<polygon fill="#45a3e7" stroke="black" points="582,-306 476,-306 476,-223 582,-223 582,-306"/>
<text text-anchor="start" x="488" y="-290.8" font-family="Times New Roman,serif" font-size="14.00">weight ≤ 309.0</text>
<text text-anchor="start" x="484" y="-275.8" font-family="Times New Roman,serif" font-size="14.00">entropy = 0.323</text>
<text text-anchor="start" x="491.5" y="-260.8" font-family="Times New Roman,serif" font-size="14.00">samples = 17</text>
<text text-anchor="start" x="488" y="-245.8" font-family="Times New Roman,serif" font-size="14.00">value = [1, 16]</text>
<text text-anchor="start" x="496.5" y="-230.8" font-family="Times New Roman,serif" font-size="14.00">class = true</text>
</g>
<!-- 13&#45;&gt;14 -->
<g id="edge14" class="edge"><title>13&#45;&gt;14</title>
<path fill="none" stroke="black" d="M572.755,-341.907C567.766,-333.195 562.441,-323.897 557.285,-314.893"/>
<polygon fill="black" stroke="black" points="560.211,-312.959 552.204,-306.021 554.136,-316.438 560.211,-312.959"/>
</g>
<!-- 17 -->
<g id="node18" class="node"><title>17</title>
<polygon fill="#a3d2f3" stroke="black" points="710,-306 600,-306 600,-223 710,-223 710,-306"/>
<text text-anchor="start" x="608" y="-290.8" font-family="Times New Roman,serif" font-size="14.00">smoking ≤ 0.317</text>
<text text-anchor="start" x="610" y="-275.8" font-family="Times New Roman,serif" font-size="14.00">entropy = 0.933</text>
<text text-anchor="start" x="617.5" y="-260.8" font-family="Times New Roman,serif" font-size="14.00">samples = 43</text>
<text text-anchor="start" x="611" y="-245.8" font-family="Times New Roman,serif" font-size="14.00">value = [15, 28]</text>
<text text-anchor="start" x="622.5" y="-230.8" font-family="Times New Roman,serif" font-size="14.00">class = true</text>
</g>
<!-- 13&#45;&gt;17 -->
<g id="edge17" class="edge"><title>13&#45;&gt;17</title>
<path fill="none" stroke="black" d="M616.47,-341.907C620.817,-333.286 625.454,-324.09 629.95,-315.175"/>
<polygon fill="black" stroke="black" points="633.189,-316.526 634.566,-306.021 626.939,-313.374 633.189,-316.526"/>
</g>
<!-- 15 -->
<g id="node16" class="node"><title>15</title>
<polygon fill="#399de5" stroke="black" points="465,-179.5 367,-179.5 367,-111.5 465,-111.5 465,-179.5"/>
<text text-anchor="start" x="378" y="-164.3" font-family="Times New Roman,serif" font-size="14.00">entropy = 0.0</text>
<text text-anchor="start" x="378.5" y="-149.3" font-family="Times New Roman,serif" font-size="14.00">samples = 16</text>
<text text-anchor="start" x="375" y="-134.3" font-family="Times New Roman,serif" font-size="14.00">value = [0, 16]</text>
<text text-anchor="start" x="383.5" y="-119.3" font-family="Times New Roman,serif" font-size="14.00">class = true</text>
</g>
<!-- 14&#45;&gt;15 -->
<g id="edge15" class="edge"><title>14&#45;&gt;15</title>
<path fill="none" stroke="black" d="M489.795,-222.907C478.605,-211.321 466.413,-198.698 455.222,-187.111"/>
<polygon fill="black" stroke="black" points="457.498,-184.428 448.033,-179.667 452.463,-189.291 457.498,-184.428"/>
</g>
<!-- 16 -->
<g id="node17" class="node"><title>16</title>
<polygon fill="#e58139" stroke="black" points="575,-179.5 483,-179.5 483,-111.5 575,-111.5 575,-179.5"/>
<text text-anchor="start" x="491" y="-164.3" font-family="Times New Roman,serif" font-size="14.00">entropy = 0.0</text>
<text text-anchor="start" x="495" y="-149.3" font-family="Times New Roman,serif" font-size="14.00">samples = 1</text>
<text text-anchor="start" x="491.5" y="-134.3" font-family="Times New Roman,serif" font-size="14.00">value = [1, 0]</text>
<text text-anchor="start" x="494" y="-119.3" font-family="Times New Roman,serif" font-size="14.00">class = false</text>
</g>
<!-- 14&#45;&gt;16 -->
<g id="edge16" class="edge"><title>14&#45;&gt;16</title>
<path fill="none" stroke="black" d="M529,-222.907C529,-212.204 529,-200.615 529,-189.776"/>
<polygon fill="black" stroke="black" points="532.5,-189.667 529,-179.667 525.5,-189.667 532.5,-189.667"/>
</g>
<!-- 18 -->
<g id="node19" class="node"><title>18</title>
<polygon fill="#baddf6" stroke="black" points="699,-187 593,-187 593,-104 699,-104 699,-187"/>
<text text-anchor="start" x="602" y="-171.8" font-family="Times New Roman,serif" font-size="14.00">arthritis ≤ 0.205</text>
<text text-anchor="start" x="601" y="-156.8" font-family="Times New Roman,serif" font-size="14.00">entropy = 0.968</text>
<text text-anchor="start" x="608.5" y="-141.8" font-family="Times New Roman,serif" font-size="14.00">samples = 38</text>
<text text-anchor="start" x="602" y="-126.8" font-family="Times New Roman,serif" font-size="14.00">value = [15, 23]</text>
<text text-anchor="start" x="613.5" y="-111.8" font-family="Times New Roman,serif" font-size="14.00">class = true</text>
</g>
<!-- 17&#45;&gt;18 -->
<g id="edge18" class="edge"><title>17&#45;&gt;18</title>
<path fill="none" stroke="black" d="M651.877,-222.907C651.235,-214.558 650.552,-205.671 649.886,-197.02"/>
<polygon fill="black" stroke="black" points="653.374,-196.723 649.117,-187.021 646.394,-197.26 653.374,-196.723"/>
</g>
<!-- 21 -->
<g id="node22" class="node"><title>21</title>
<polygon fill="#399de5" stroke="black" points="809,-179.5 717,-179.5 717,-111.5 809,-111.5 809,-179.5"/>
<text text-anchor="start" x="725" y="-164.3" font-family="Times New Roman,serif" font-size="14.00">entropy = 0.0</text>
<text text-anchor="start" x="729" y="-149.3" font-family="Times New Roman,serif" font-size="14.00">samples = 5</text>
<text text-anchor="start" x="725.5" y="-134.3" font-family="Times New Roman,serif" font-size="14.00">value = [0, 5]</text>
<text text-anchor="start" x="730.5" y="-119.3" font-family="Times New Roman,serif" font-size="14.00">class = true</text>
</g>
<!-- 17&#45;&gt;21 -->
<g id="edge21" class="edge"><title>17&#45;&gt;21</title>
<path fill="none" stroke="black" d="M692.47,-222.907C703.165,-211.321 714.817,-198.698 725.513,-187.111"/>
<polygon fill="black" stroke="black" points="728.173,-189.389 732.384,-179.667 723.03,-184.641 728.173,-189.389"/>
</g>
<!-- 19 -->
<g id="node20" class="node"><title>19</title>
<polygon fill="#e58139" stroke="black" points="582,-68 490,-68 490,-0 582,-0 582,-68"/>
<text text-anchor="start" x="498" y="-52.8" font-family="Times New Roman,serif" font-size="14.00">entropy = 0.0</text>
<text text-anchor="start" x="502" y="-37.8" font-family="Times New Roman,serif" font-size="14.00">samples = 2</text>
<text text-anchor="start" x="498.5" y="-22.8" font-family="Times New Roman,serif" font-size="14.00">value = [2, 0]</text>
<text text-anchor="start" x="501" y="-7.8" font-family="Times New Roman,serif" font-size="14.00">class = false</text>
</g>
<!-- 18&#45;&gt;19 -->
<g id="edge19" class="edge"><title>18&#45;&gt;19</title>
<path fill="none" stroke="black" d="M605.04,-103.726C595.786,-94.5142 585.964,-84.7364 576.719,-75.5343"/>
<polygon fill="black" stroke="black" points="579.008,-72.8741 569.452,-68.2996 574.07,-77.8351 579.008,-72.8741"/>
</g>
<!-- 20 -->
<g id="node21" class="node"><title>20</title>
<polygon fill="#a9d4f4" stroke="black" points="706,-68 600,-68 600,-0 706,-0 706,-68"/>
<text text-anchor="start" x="608" y="-52.8" font-family="Times New Roman,serif" font-size="14.00">entropy = 0.944</text>
<text text-anchor="start" x="615.5" y="-37.8" font-family="Times New Roman,serif" font-size="14.00">samples = 36</text>
<text text-anchor="start" x="609" y="-22.8" font-family="Times New Roman,serif" font-size="14.00">value = [13, 23]</text>
<text text-anchor="start" x="620.5" y="-7.8" font-family="Times New Roman,serif" font-size="14.00">class = true</text>
</g>
<!-- 18&#45;&gt;20 -->
<g id="edge20" class="edge"><title>18&#45;&gt;20</title>
<path fill="none" stroke="black" d="M648.607,-103.726C649.137,-95.4263 649.697,-86.6671 650.233,-78.2834"/>
<polygon fill="black" stroke="black" points="653.726,-78.5025 650.871,-68.2996 646.74,-78.0559 653.726,-78.5025"/>
</g>
<!-- 23 -->
<g id="node24" class="node"><title>23</title>
<polygon fill="#f2c09c" stroke="black" points="935,-306 829,-306 829,-223 935,-223 935,-306"/>
<text text-anchor="start" x="838" y="-290.8" font-family="Times New Roman,serif" font-size="14.00">vaccine ≤ 0.255</text>
<text text-anchor="start" x="837" y="-275.8" font-family="Times New Roman,serif" font-size="14.00">entropy = 0.918</text>
<text text-anchor="start" x="844.5" y="-260.8" font-family="Times New Roman,serif" font-size="14.00">samples = 27</text>
<text text-anchor="start" x="841" y="-245.8" font-family="Times New Roman,serif" font-size="14.00">value = [18, 9]</text>
<text text-anchor="start" x="847" y="-230.8" font-family="Times New Roman,serif" font-size="14.00">class = false</text>
</g>
<!-- 22&#45;&gt;23 -->
<g id="edge23" class="edge"><title>22&#45;&gt;23</title>
<path fill="none" stroke="black" d="M882,-341.907C882,-333.649 882,-324.864 882,-316.302"/>
<polygon fill="black" stroke="black" points="885.5,-316.021 882,-306.021 878.5,-316.021 885.5,-316.021"/>
</g>
<!-- 30 -->
<g id="node31" class="node"><title>30</title>
<polygon fill="#399de5" stroke="black" points="1045,-298.5 953,-298.5 953,-230.5 1045,-230.5 1045,-298.5"/>
<text text-anchor="start" x="961" y="-283.3" font-family="Times New Roman,serif" font-size="14.00">entropy = 0.0</text>
<text text-anchor="start" x="965" y="-268.3" font-family="Times New Roman,serif" font-size="14.00">samples = 6</text>
<text text-anchor="start" x="961.5" y="-253.3" font-family="Times New Roman,serif" font-size="14.00">value = [0, 6]</text>
<text text-anchor="start" x="966.5" y="-238.3" font-family="Times New Roman,serif" font-size="14.00">class = true</text>
</g>
<!-- 22&#45;&gt;30 -->
<g id="edge30" class="edge"><title>22&#45;&gt;30</title>
<path fill="none" stroke="black" d="M922.593,-341.907C934.289,-330.211 947.043,-317.457 958.72,-305.78"/>
<polygon fill="black" stroke="black" points="961.237,-308.213 965.833,-298.667 956.287,-303.263 961.237,-308.213"/>
</g>
<!-- 24 -->
<g id="node25" class="node"><title>24</title>
<polygon fill="#e78c4b" stroke="black" points="937,-187 827,-187 827,-104 937,-104 937,-187"/>
<text text-anchor="start" x="835" y="-171.8" font-family="Times New Roman,serif" font-size="14.00">smoking ≤ 0.578</text>
<text text-anchor="start" x="837" y="-156.8" font-family="Times New Roman,serif" font-size="14.00">entropy = 0.414</text>
<text text-anchor="start" x="844.5" y="-141.8" font-family="Times New Roman,serif" font-size="14.00">samples = 12</text>
<text text-anchor="start" x="841" y="-126.8" font-family="Times New Roman,serif" font-size="14.00">value = [11, 1]</text>
<text text-anchor="start" x="847" y="-111.8" font-family="Times New Roman,serif" font-size="14.00">class = false</text>
</g>
<!-- 23&#45;&gt;24 -->
<g id="edge24" class="edge"><title>23&#45;&gt;24</title>
<path fill="none" stroke="black" d="M882,-222.907C882,-214.649 882,-205.864 882,-197.302"/>
<polygon fill="black" stroke="black" points="885.5,-197.021 882,-187.021 878.5,-197.021 885.5,-197.021"/>
</g>
<!-- 27 -->
<g id="node28" class="node"><title>27</title>
<polygon fill="#e6f3fc" stroke="black" points="1061,-187 955,-187 955,-104 1061,-104 1061,-187"/>
<text text-anchor="start" x="970" y="-171.8" font-family="Times New Roman,serif" font-size="14.00">CVD ≤ 0.495</text>
<text text-anchor="start" x="963" y="-156.8" font-family="Times New Roman,serif" font-size="14.00">entropy = 0.997</text>
<text text-anchor="start" x="970.5" y="-141.8" font-family="Times New Roman,serif" font-size="14.00">samples = 15</text>
<text text-anchor="start" x="970.5" y="-126.8" font-family="Times New Roman,serif" font-size="14.00">value = [7, 8]</text>
<text text-anchor="start" x="975.5" y="-111.8" font-family="Times New Roman,serif" font-size="14.00">class = true</text>
</g>
<!-- 23&#45;&gt;27 -->
<g id="edge27" class="edge"><title>23&#45;&gt;27</title>
<path fill="none" stroke="black" d="M925.715,-222.907C935.781,-213.56 946.575,-203.538 956.923,-193.929"/>
<polygon fill="black" stroke="black" points="959.416,-196.39 964.362,-187.021 954.653,-191.261 959.416,-196.39"/>
</g>
<!-- 25 -->
<g id="node26" class="node"><title>25</title>
<polygon fill="#e58139" stroke="black" points="824,-68 726,-68 726,-0 824,-0 824,-68"/>
<text text-anchor="start" x="737" y="-52.8" font-family="Times New Roman,serif" font-size="14.00">entropy = 0.0</text>
<text text-anchor="start" x="737.5" y="-37.8" font-family="Times New Roman,serif" font-size="14.00">samples = 10</text>
<text text-anchor="start" x="734" y="-22.8" font-family="Times New Roman,serif" font-size="14.00">value = [10, 0]</text>
<text text-anchor="start" x="740" y="-7.8" font-family="Times New Roman,serif" font-size="14.00">class = false</text>
</g>
<!-- 24&#45;&gt;25 -->
<g id="edge25" class="edge"><title>24&#45;&gt;25</title>
<path fill="none" stroke="black" d="M842.157,-103.726C833.155,-94.5142 823.601,-84.7364 814.609,-75.5343"/>
<polygon fill="black" stroke="black" points="817.032,-73.0057 807.539,-68.2996 812.025,-77.898 817.032,-73.0057"/>
</g>
<!-- 26 -->
<g id="node27" class="node"><title>26</title>
<polygon fill="#ffffff" stroke="black" points="934,-68 842,-68 842,-0 934,-0 934,-68"/>
<text text-anchor="start" x="850" y="-52.8" font-family="Times New Roman,serif" font-size="14.00">entropy = 1.0</text>
<text text-anchor="start" x="854" y="-37.8" font-family="Times New Roman,serif" font-size="14.00">samples = 2</text>
<text text-anchor="start" x="850.5" y="-22.8" font-family="Times New Roman,serif" font-size="14.00">value = [1, 1]</text>
<text text-anchor="start" x="853" y="-7.8" font-family="Times New Roman,serif" font-size="14.00">class = false</text>
</g>
<!-- 24&#45;&gt;26 -->
<g id="edge26" class="edge"><title>24&#45;&gt;26</title>
<path fill="none" stroke="black" d="M884.234,-103.726C884.684,-95.5175 885.158,-86.8595 885.613,-78.56"/>
<polygon fill="black" stroke="black" points="889.123,-78.4761 886.175,-68.2996 882.133,-78.0931 889.123,-78.4761"/>
</g>
<!-- 28 -->
<g id="node29" class="node"><title>28</title>
<polygon fill="#f4c9aa" stroke="black" points="1059,-68 953,-68 953,-0 1059,-0 1059,-68"/>
<text text-anchor="start" x="961" y="-52.8" font-family="Times New Roman,serif" font-size="14.00">entropy = 0.946</text>
<text text-anchor="start" x="968.5" y="-37.8" font-family="Times New Roman,serif" font-size="14.00">samples = 11</text>
<text text-anchor="start" x="968.5" y="-22.8" font-family="Times New Roman,serif" font-size="14.00">value = [7, 4]</text>
<text text-anchor="start" x="971" y="-7.8" font-family="Times New Roman,serif" font-size="14.00">class = false</text>
</g>
<!-- 27&#45;&gt;28 -->
<g id="edge28" class="edge"><title>27&#45;&gt;28</title>
<path fill="none" stroke="black" d="M1007.26,-103.726C1007.11,-95.5175 1006.95,-86.8595 1006.8,-78.56"/>
<polygon fill="black" stroke="black" points="1010.29,-78.234 1006.61,-68.2996 1003.29,-78.3619 1010.29,-78.234"/>
</g>
<!-- 29 -->
<g id="node30" class="node"><title>29</title>
<polygon fill="#399de5" stroke="black" points="1169,-68 1077,-68 1077,-0 1169,-0 1169,-68"/>
<text text-anchor="start" x="1085" y="-52.8" font-family="Times New Roman,serif" font-size="14.00">entropy = 0.0</text>
<text text-anchor="start" x="1089" y="-37.8" font-family="Times New Roman,serif" font-size="14.00">samples = 4</text>
<text text-anchor="start" x="1085.5" y="-22.8" font-family="Times New Roman,serif" font-size="14.00">value = [0, 4]</text>
<text text-anchor="start" x="1090.5" y="-7.8" font-family="Times New Roman,serif" font-size="14.00">class = true</text>
</g>
<!-- 27&#45;&gt;29 -->
<g id="edge29" class="edge"><title>27&#45;&gt;29</title>
<path fill="none" stroke="black" d="M1050.82,-103.726C1060.59,-94.423 1070.97,-84.5428 1080.72,-75.2612"/>
<polygon fill="black" stroke="black" points="1083.2,-77.7301 1088.03,-68.2996 1078.37,-72.6606 1083.2,-77.7301"/>
</g>
</g>
</svg>
